HIERARCHY
ROOT Hips
{
	OFFSET 0.000000 0.000000 0.000000
	CHANNELS 6 Xposition Yposition Zposition Zrotation Yrotation Xrotation 
	JOINT LHipJoint
	{
		OFFSET 0.000000 0.000000 0.000000
		CHANNELS 3 Zrotation Yrotation Xrotation
		JOINT LeftUpLeg
		{
			OFFSET 1.363060 -1.794630 0.839290
			CHANNELS 3 Zrotation Yrotation Xrotation
			JOINT LeftLeg
			{
				OFFSET 2.448110 -6.726130 0.000000
				CHANNELS 3 Zrotation Yrotation Xrotation
				JOINT LeftFoot
				{
					OFFSET 2.562200 -7.039590 0.000000
					CHANNELS 3 Zrotation Yrotation Xrotation
					JOINT LeftToeBase
					{
						OFFSET 0.157640 -0.433110 2.322550
						CHANNELS 3 Zrotation Yrotation Xrotation
						End Site
						{
							OFFSET 0.000000 0.000000 0.000000
						}
					}
				}
			}
		}
	}
	JOINT RHipJoint
	{
		OFFSET 0.000000 0.000000 0.000000
		CHANNELS 3 Zrotation Yrotation Xrotation
		JOINT RightUpLeg
		{
			OFFSET -1.305520 -1.794630 0.839290
			CHANNELS 3 Zrotation Yrotation Xrotation
			JOINT RightLeg
			{
				OFFSET -2.542530 -6.985550 0.000000
				CHANNELS 3 Zrotation Yrotation Xrotation
				JOINT RightFoot
				{
					OFFSET -2.568260 -7.056230 0.000000
					CHANNELS 3 Zrotation Yrotation Xrotation
					JOINT RightToeBase
					{
						OFFSET -0.164730 -0.452590 2.363150
						CHANNELS 3 Zrotation Yrotation Xrotation
						End Site
						{
							OFFSET 0.000000 0.000000 0.000000
						}
					}
				}
			}
		}
	}
	JOINT LowerBack
	{
		OFFSET 0.000000 0.000000 0.000000
		CHANNELS 3 Zrotation Yrotation Xrotation
		JOINT Spine
		{
			OFFSET 0.028270 2.035590 -0.193380
			CHANNELS 3 Zrotation Yrotation Xrotation
			JOINT Spine1
			{
				OFFSET 0.056720 2.048850 -0.042750
				CHANNELS 3 Zrotation Yrotation Xrotation
				JOINT Neck
				{
					OFFSET 0.000000 0.000000 0.000000
					CHANNELS 3 Zrotation Yrotation Xrotation
					JOINT Neck1
					{
						OFFSET -0.054170 1.746240 0.172020
						CHANNELS 3 Zrotation Yrotation Xrotation
						JOINT Head
						{
							OFFSET 0.104070 1.761360 -0.123970
							CHANNELS 3 Zrotation Yrotation Xrotation
							End Site
							{
								OFFSET 0.000000 0.000000 0.000000
							}
						}
					}
				}
				JOINT LeftShoulder
				{
					OFFSET 0.000000 0.000000 0.000000
					CHANNELS 3 Zrotation Yrotation Xrotation
					JOINT LeftArm
					{
						OFFSET 3.362410 1.200890 -0.311210
						CHANNELS 3 Zrotation Yrotation Xrotation
						JOINT LeftForeArm
						{
							OFFSET 4.983000 -0.000000 -0.000000
							CHANNELS 3 Zrotation Yrotation Xrotation
							JOINT LeftHand
							{
								OFFSET 3.483560 -0.000000 -0.000000
								CHANNELS 3 Zrotation Yrotation Xrotation
								JOINT LeftFingerBase
								{
									OFFSET 0.000000 0.000000 0.000000
									CHANNELS 3 Zrotation Yrotation Xrotation
									JOINT LeftHandIndex1
									{
										OFFSET 0.715260 -0.000000 -0.000000
										CHANNELS 3 Zrotation Yrotation Xrotation
										End Site
										{
											OFFSET 0.000000 0.000000 0.000000
										}
									}
								}
								JOINT LThumb
								{
									OFFSET 0.000000 0.000000 0.000000
									CHANNELS 3 Zrotation Yrotation Xrotation
									End Site
									{
										OFFSET 0.000000 0.000000 0.000000
									}
								}
							}
						}
					}
				}
				JOINT RightShoulder
				{
					OFFSET 0.000000 0.000000 0.000000
					CHANNELS 3 Zrotation Yrotation Xrotation
					JOINT RightArm
					{
						OFFSET -3.136600 1.374050 -0.404650
						CHANNELS 3 Zrotation Yrotation Xrotation
						JOINT RightForeArm
						{
							OFFSET -5.241900 -0.000000 -0.000000
							CHANNELS 3 Zrotation Yrotation Xrotation
							JOINT RightHand
							{
								OFFSET -3.444170 -0.000000 -0.000000
								CHANNELS 3 Zrotation Yrotation Xrotation
								JOINT RightFingerBase
								{
									OFFSET 0.000000 0.000000 0.000000
									CHANNELS 3 Zrotation Yrotation Xrotation
									JOINT RightHandIndex1
									{
										OFFSET -0.622530 -0.000000 -0.000000
										CHANNELS 3 Zrotation Yrotation Xrotation
										End Site
										{
											OFFSET 0.000000 0.000000 0.000000
										}
									}
								}
								JOINT RThumb
								{
									OFFSET 0.000000 0.000000 0.000000
									CHANNELS 3 Zrotation Yrotation Xrotation
									End Site
									{
										OFFSET 0.000000 0.000000 0.000000
									}
								}
							}
						}
					}
				}
			}
		}
	}
}
MOTION
Frames: 10
Frame Time: 0.008333
7.809471 19.341027 0.656221 36.649919 -84.744229 -9.504321 -10.918548 2.896984 3.809593 -6.041227 -1.114423 -26.909795 -0.411922 0.446972 16.142817 1.721139 7.296627 36.892143 4.535900 0.000001 -65.070100 11.382083 -1.825824 -0.181199 5.524968 -15.575984 -25.197053 1.627216 -1.015886 14.118058 -0.354714 2.727392 34.866457 1.828100 -0.000000 -80.075600 -1.221411 -2.343904 -4.097198 -0.760113 -2.410160 -3.137018 -5.363712 -2.513479 2.958421 8.634279 -12.372282 -10.484643 -2.123042 -0.120538 -0.808992 0.000000 0.000000 0.000000 1.808796 11.487656 2.202504 -59.865196 4.648064 -16.469696 -2.898285 -36.340490 -0.030612 9.800603 5.566271 0.479715 -0.183559 0.082739 -0.000000 0.000000 0.000000 0.000000 0.000000 0.000000 0.000000 9.851840 -10.290930 1.623277 61.861115 0.389174 -33.352979 1.836178 28.752369 -0.024566 -17.107395 9.683952 -1.505562 0.188823 -0.197278 0.000000 0.000000 0.000000 0.000000 0.000000 0.000000 0.000000 
7.683548 19.582755 0.648385 37.178815 -84.983765 -9.972776 -10.881888 2.898295 4.083244 -5.649975 -2.164369 -26.707273 -0.341183 0.384606 15.207425 1.766528 8.065894 37.027377 5.100400 -0.000000 -63.028000 11.358099 -1.840970 -0.034990 5.633534 -15.263270 -25.404726 1.711441 -0.951361 13.194246 -0.300923 2.726605 34.668964 1.789501 0.000000 -78.895900 -1.258855 -2.327005 -4.548160 -0.755309 -2.399201 -3.190695 -5.319048 -2.503627 3.079520 8.637327 -12.596316 -10.426053 -2.060069 -0.117131 -0.781667 0.000000 0.000000 0.000000 2.059916 11.751774 2.170519 -58.942854 5.103560 -17.442296 -2.929991 -36.527173 -0.031337 9.542639 5.686293 0.477731 -0.189087 0.083922 -0.000000 0.000000 0.000000 0.000000 0.000000 0.000000 0.000000 9.680948 -10.522743 1.572311 60.843839 0.455626 -34.236844 1.831486 29.148309 -0.025265 -17.039709 9.630451 -1.492154 0.191260 -0.201299 0.000000 0.000000 0.000000 0.000000 0.000000 0.000000 0.000000 
7.563793 19.810472 0.640240 37.896770 -85.191410 -10.554860 -10.824983 2.885191 4.330809 -5.363070 -3.190492 -26.806214 -0.286261 0.339491 14.718686 1.791336 8.922984 36.363651 5.663500 0.000000 -61.462800 11.322229 -1.833523 0.118087 5.761102 -14.867257 -25.838690 1.809396 -0.895456 12.554820 -0.224601 2.511912 33.572968 1.559300 -0.000000 -78.349300 -1.298426 -2.315108 -4.969946 -0.750017 -2.391947 -3.242571 -5.266562 -2.498167 3.183962 8.619990 -12.796111 -10.387971 -1.991558 -0.112772 -0.762284 0.000000 0.000000 0.000000 2.315988 11.979090 2.155565 -57.983664 5.501713 -18.466021 -2.940076 -36.744098 -0.032539 9.525145 5.741790 0.481645 -0.195156 0.086755 -0.000000 0.000000 0.000000 0.000000 0.000000 0.000000 0.000000 9.461299 -10.724831 1.539101 59.866864 0.520745 -35.148263 1.808776 29.674851 -0.026419 -16.996488 9.580041 -1.481747 0.193489 -0.206533 0.000000 0.000000 0.000000 0.000000 0.000000 0.000000 0.000000 
7.450593 20.024410 0.632012 38.724327 -85.360645 -11.205807 -10.755190 2.857000 4.532585 -5.194527 -4.088330 -27.158979 -0.254044 0.308784 14.612363 1.797737 9.727646 35.098450 6.122000 -0.000000 -60.437799 11.275897 -1.803358 0.263945 5.902804 -14.454025 -26.430179 1.925162 -0.841172 12.123105 -0.131716 2.199037 31.776448 1.234000 -0.000001 -78.107500 -1.337439 -2.307387 -5.327241 -0.744458 -2.387077 -3.286837 -5.208314 -2.495424 3.269434 8.584172 -12.966864 -10.366479 -1.919477 -0.107652 -0.749845 0.000000 0.000000 0.000000 2.573153 12.167664 2.156209 -56.986183 5.833826 -19.526261 -2.927675 -36.992056 -0.034236 9.756363 5.727968 0.491856 -0.201818 0.091241 -0.000000 0.000000 0.000000 0.000000 0.000000 0.000000 0.000000 9.201501 -10.893496 1.521761 58.923401 0.559040 -36.033882 1.768342 30.349895 -0.028044 -17.005247 9.528167 -1.475742 0.195697 -0.212745 0.000000 0.000000 0.000000 0.000000 0.000000 0.000000 0.000000 
7.344191 20.224699 0.623702 39.640317 -85.486640 -11.933503 -10.678394 2.814894 4.673100 -5.163892 -4.778179 -27.713300 -0.250990 0.290834 14.809412 1.786092 10.359963 33.431608 6.399600 0.000001 -59.781400 11.221692 -1.748860 0.390844 6.052646 -14.085955 -27.126209 2.060398 -0.782585 11.825191 -0.030857 1.891632 29.509314 0.901900 0.000000 -78.075700 -1.378028 -2.304030 -5.592053 -0.739588 -2.384131 -3.317722 -5.145723 -2.494565 3.338277 8.532730 -13.111862 -10.361082 -1.844760 -0.101829 -0.744306 0.000000 0.000000 0.000000 2.825928 12.333694 2.170094 -55.948702 6.072363 -20.611751 -2.893748 -37.260945 -0.036455 10.226049 5.640059 0.506964 -0.209114 0.097414 -0.000000 0.000000 0.000000 0.000000 0.000000 0.000000 0.000000 8.910325 -11.034210 1.517011 58.013089 0.569541 -36.889559 1.710841 31.177091 -0.030124 -17.060596 9.474097 -1.473538 0.197877 -0.219866 0.000000 0.000000 0.000000 0.000000 0.000000 0.000000 0.000000 
7.244562 20.412330 0.615545 40.570450 -85.569419 -12.683714 -10.601179 2.760509 4.744209 -5.277808 -5.211888 -28.421105 -0.279841 0.284752 15.219577 1.756747 10.745964 31.571849 6.469000 -0.000000 -59.329200 11.160607 -1.671412 0.490317 6.216526 -13.809694 -27.889532 2.215101 -0.716679 11.598327 0.070675 1.666368 27.002387 0.624500 -0.000000 -78.000699 -1.417538 -2.304132 -5.748234 -0.735635 -2.382291 -3.331544 -5.081671 -2.494442 3.392783 8.471685 -13.234674 -10.371775 -1.769788 -0.095496 -0.745668 0.000000 0.000000 0.000000 3.067041 12.492910 2.194414 -54.869085 6.197714 -21.710028 -2.839772 -37.548412 -0.039234 10.916111 5.478277 0.524469 -0.217032 0.105198 -0.000000 0.000000 0.000000 0.000000 0.000000 0.000000 0.000000 8.605455 -11.151879 1.521346 57.123604 0.547446 -37.696146 1.638163 32.156534 -0.032632 -17.168859 9.417419 -1.475637 0.200109 -0.227711 0.000000 0.000000 0.000000 0.000000 0.000000 0.000000 0.000000 
7.151491 20.587523 0.607777 41.396972 -85.612203 -13.349226 -10.530273 2.695665 4.742451 -5.529765 -5.369755 -29.235927 -0.339273 0.290314 15.750649 1.710816 10.863417 29.724245 6.351100 0.000000 -59.269800 11.092947 -1.575033 0.555766 6.407952 -13.653325 -28.687069 2.386008 -0.642184 11.374809 0.164559 1.535847 24.490808 0.416100 0.000001 -78.137600 -1.446745 -2.307000 -5.785973 -0.731131 -2.381597 -3.325929 -5.018136 -2.494843 3.434068 8.402495 -13.332279 -10.396278 -1.696671 -0.088865 -0.753310 0.000000 0.000000 0.000000 3.286980 12.655464 2.227162 -53.750056 6.202809 -22.817410 -2.767837 -37.857021 -0.042600 11.791242 5.247994 0.541071 -0.225476 0.114472 -0.000000 0.000000 0.000000 0.000000 0.000000 0.000000 0.000000 8.296206 -11.244510 1.532171 56.250552 0.490523 -38.473304 1.552104 33.282349 -0.035530 -17.312403 9.357361 -1.480238 0.202327 -0.236246 0.000000 0.000000 0.000000 0.000000 0.000000 0.000000 0.000000 
7.064580 20.751481 0.600764 41.990801 -85.622157 -13.803009 -10.471105 2.622665 4.671223 -5.904405 -5.254912 -30.130983 -0.426443 0.307657 16.325478 1.647787 10.716034 28.038544 6.083900 -0.000000 -59.539400 11.018064 -1.466381 0.587198 6.644108 -13.619996 -29.506301 2.569240 -0.560520 11.111169 0.247200 1.492408 22.150360 0.272900 0.000000 -78.476900 -1.455408 -2.311081 -5.710709 -0.724505 -2.381649 -3.301276 -4.958246 -2.495201 3.463648 8.329961 -13.404769 -10.433594 -1.628397 -0.082227 -0.766797 0.000000 0.000000 0.000000 3.476140 12.830956 2.265787 -52.593350 6.087945 -23.925600 -2.680612 -38.195092 -0.046561 12.812793 4.961140 0.553670 -0.234289 0.124984 -0.000000 0.000000 0.000000 0.000000 0.000000 0.000000 0.000000 7.999338 -11.312429 1.546788 55.379156 0.395952 -39.221231 1.455566 34.543661 -0.038779 -17.489991 9.293788 -1.487141 0.204574 -0.245305 -0.000000 0.000000 0.000000 0.000000 0.000000 0.000000 0.000000 
6.982756 20.904636 0.594600 42.319655 -85.607194 -14.000206 -10.425317 2.544799 4.541203 -6.384701 -4.900867 -31.088279 -0.538081 0.335404 16.875764 1.567570 10.337114 26.596827 5.714901 0.000000 -59.780499 10.936490 -1.351797 0.590691 6.932857 -13.692047 -30.353272 2.760782 -0.474811 10.795139 0.319461 1.525181 20.074136 0.185300 -0.000001 -78.674100 -1.440639 -2.314535 -5.541409 -0.715748 -2.381417 -3.259964 -4.905517 -2.494414 3.485545 8.263097 -13.459899 -10.485019 -1.567873 -0.075841 -0.786243 0.000000 0.000000 0.000000 3.628275 13.035231 2.307052 -51.398900 5.849271 -25.023312 -2.581380 -38.567457 -0.051116 13.942417 4.634672 0.560265 -0.243313 0.136401 -0.000000 0.000000 0.000000 0.000000 0.000000 0.000000 0.000000 7.738727 -11.364054 1.562100 54.487182 0.266172 -39.927470 1.352363 35.921806 -0.042325 -17.710197 9.228078 -1.497245 0.206981 -0.254618 -0.000000 0.000000 0.000000 0.000000 0.000000 0.000000 0.000000 
6.905215 21.047473 0.589446 42.351938 -85.575366 -13.897503 -10.392782 2.463322 4.365269 -6.946655 -4.359507 -32.090026 -0.668773 0.370620 17.337409 1.474244 9.791594 25.456770 5.300000 0.000000 -60.013000 10.848233 -1.236664 0.574575 7.277057 -13.833234 -31.227936 2.955364 -0.386263 10.407447 0.380284 1.591027 18.321416 0.128401 0.000000 -78.774700 -1.396923 -2.316125 -5.300003 -0.703778 -2.380530 -3.205555 -4.861580 -2.492173 3.501569 8.204366 -13.499276 -10.548920 -1.516658 -0.069898 -0.810910 0.000000 0.000000 0.000000 3.738565 13.273400 2.348668 -50.172361 5.498956 -26.102752 -2.473484 -38.981816 -0.056223 15.137401 4.289220 0.559957 -0.252363 0.148364 -0.000000 0.000000 0.000000 0.000000 0.000000 0.000000 0.000000 7.523132 -11.401004 1.576435 53.566351 0.103030 -40.606215 1.245701 37.394509 -0.046113 -17.965698 9.161553 -1.509951 0.209576 -0.264062 -0.000000 0.000000 0.000000 0.000000 0.000000 0.000000 0.000000 
